<svg width="352" height="48" viewBox="0 0 352 48" fill="none" xmlns="http://www.w3.org/2000/svg">
<path d="M15.903 15.083C14.5789 14.747 13.0893 14.5789 11.4342 14.5789C6.30332 14.5789 2 18.7796 2 24.1565C2 35.4143 7.95845 46 15.0755 46C16.2341 46 17.3927 45.6639 18.5512 45.1599C21.1994 43.8156 20.5374 43.8156 23.1856 45.1599C24.1787 45.6639 25.3373 46 26.6614 46C33.7784 46 39.7368 36.0864 39.7368 24.1565C39.7368 18.9477 35.599 14.5789 30.3026 14.5789C24.1787 14.5789 20.8684 17.6034 20.8684 17.6034" stroke="#DE4554" stroke-width="3.54276" stroke-miterlimit="10" stroke-linecap="round" stroke-linejoin="round"/>
<path d="M8.58044 26.1052C8.07192 23.906 9.42798 21.8759 11.6316 21.3684" stroke="#DE4554" stroke-width="3.54276" stroke-miterlimit="10" stroke-linecap="round" stroke-linejoin="round"/>
<path d="M26.9245 8.13114C30.0925 7.22809 32.32 5.2657 31.8996 3.74801C31.4793 2.23033 28.5703 1.73207 25.4023 2.63512C22.2343 3.53817 20.0069 5.50056 20.4272 7.01825C20.8476 8.53593 23.7565 9.03419 26.9245 8.13114Z" stroke="#28E47F" stroke-width="3.54276" stroke-miterlimit="10" stroke-linecap="round" stroke-linejoin="round"/>
<path d="M15.8947 1.78949C15.8947 1.78949 20.6263 3.4876 20.7895 10.7895" stroke="#28E47F" stroke-width="3.54276" stroke-miterlimit="10" stroke-linecap="round" stroke-linejoin="round"/>
<path d="M82.6408 35.5H87.9788L78.9348 11.7H73.0528L64.0088 35.5H69.3468L71.2168 30.468H80.7708L82.6408 35.5ZM72.7808 26.15L76.0108 17.446L79.2068 26.15H72.7808ZM100.005 17.616C98.2367 17.616 96.5707 18.16 95.2787 19.214V18.024H90.5187V42.912H95.2787V34.31C96.5707 35.364 98.2367 35.908 100.005 35.908C104.731 35.908 108.607 32.066 108.607 26.762C108.607 21.424 104.731 17.616 100.005 17.616ZM99.2227 31.522C97.7267 31.522 96.3327 30.91 95.2787 29.686V23.804C96.3327 22.614 97.7267 22.002 99.2227 22.002C101.875 22.002 103.779 23.872 103.779 26.762C103.779 29.652 101.875 31.522 99.2227 31.522ZM121.686 17.616C119.918 17.616 118.252 18.16 116.96 19.214V18.024H112.2V42.912H116.96V34.31C118.252 35.364 119.918 35.908 121.686 35.908C126.412 35.908 130.288 32.066 130.288 26.762C130.288 21.424 126.412 17.616 121.686 17.616ZM120.904 31.522C119.408 31.522 118.014 30.91 116.96 29.686V23.804C118.014 22.614 119.408 22.002 120.904 22.002C123.556 22.002 125.46 23.872 125.46 26.762C125.46 29.652 123.556 31.522 120.904 31.522ZM147.941 17.446C147.941 15.372 148.995 14.386 151.035 14.386C151.749 14.386 152.497 14.522 153.245 14.76L153.993 10.714C152.667 10.204 151.375 10 150.151 10C145.799 10 143.181 12.516 143.181 17.344V18.024H139.815V22.206H143.181V35.5H147.941V22.206H153.449V18.024H147.941V17.446ZM164.226 35.908C169.632 35.908 173.542 32.032 173.542 26.762C173.542 21.458 169.632 17.616 164.226 17.616C158.854 17.616 154.91 21.458 154.91 26.762C154.91 32.032 158.854 35.908 164.226 35.908ZM164.226 31.522C161.676 31.522 159.738 29.584 159.738 26.762C159.738 23.906 161.676 22.002 164.226 22.002C166.81 22.002 168.714 23.906 168.714 26.762C168.714 29.584 166.81 31.522 164.226 31.522ZM186.53 17.616C184.796 17.616 183.062 18.364 181.906 19.758V18.024H177.146V35.5H181.906V24.518C183.028 22.92 184.694 22.104 186.564 22.104C187.006 22.104 187.516 22.172 188.128 22.24L188.332 17.854C187.686 17.684 187.074 17.616 186.53 17.616Z" fill="white"/>
<path d="M217.209 11.7H197.761V16.46H204.969V35.5H210.001V16.46H217.209V11.7ZM235.422 26.286C235.422 20.914 231.784 17.616 226.684 17.616C221.108 17.616 217.232 21.492 217.232 26.898C217.232 32.202 220.938 35.908 226.718 35.908C230.118 35.908 232.906 34.65 234.878 32.168L231.546 29.652C230.152 31.25 228.588 31.862 226.786 31.862C224.1 31.862 222.366 30.536 221.958 27.986H235.32C235.388 27.408 235.422 26.864 235.422 26.286ZM226.616 21.56C228.758 21.56 230.22 22.546 230.662 24.62H222.162C222.808 22.614 224.372 21.56 226.616 21.56ZM251.378 18.024V19.18C250.086 18.16 248.454 17.616 246.686 17.616C241.926 17.616 238.05 21.424 238.05 26.762C238.05 32.066 241.926 35.908 246.686 35.908C248.454 35.908 250.086 35.364 251.378 34.344V35.5H256.138V18.024H251.378ZM247.434 31.522C244.816 31.522 242.878 29.652 242.878 26.762C242.878 23.872 244.816 22.002 247.434 22.002C248.896 22.002 250.324 22.58 251.378 23.77V29.72C250.324 30.944 248.896 31.522 247.434 31.522ZM268.98 35.908C272.38 35.908 275.338 34.378 277.038 31.726L273.536 29.074C272.38 30.672 270.816 31.522 269.116 31.522C266.6 31.522 264.594 29.686 264.594 26.762C264.594 23.94 266.498 22.002 269.048 22.002C270.578 22.002 271.972 22.716 273.196 24.314L276.868 21.39C275.1 18.976 272.312 17.616 269.082 17.616C263.846 17.616 259.732 21.39 259.732 26.83C259.732 32.202 263.71 35.908 268.98 35.908ZM289.803 17.616C287.933 17.616 286.131 18.194 284.703 19.35V10.408H279.943V35.5H284.703V23.838C285.825 22.58 287.185 22.002 288.511 22.002C290.551 22.002 291.809 23.328 291.809 26.014V35.5H296.569V24.994C296.569 20.268 293.815 17.616 289.803 17.616ZM318.164 26.286C318.164 20.914 314.526 17.616 309.426 17.616C303.85 17.616 299.974 21.492 299.974 26.898C299.974 32.202 303.68 35.908 309.46 35.908C312.86 35.908 315.648 34.65 317.62 32.168L314.288 29.652C312.894 31.25 311.33 31.862 309.528 31.862C306.842 31.862 305.108 30.536 304.7 27.986H318.062C318.13 27.408 318.164 26.864 318.164 26.286ZM309.358 21.56C311.5 21.56 312.962 22.546 313.404 24.62H304.904C305.55 22.614 307.114 21.56 309.358 21.56ZM331.162 17.616C329.428 17.616 327.694 18.364 326.538 19.758V18.024H321.778V35.5H326.538V24.518C327.66 22.92 329.326 22.104 331.196 22.104C331.638 22.104 332.148 22.172 332.76 22.24L332.964 17.854C332.318 17.684 331.706 17.616 331.162 17.616ZM342.654 35.908C347.38 35.908 350.066 33.63 350.066 30.128C350.066 27.578 348.604 25.98 345.034 25.13L342.042 24.416C340.478 24.042 340.002 23.634 340.002 22.988C340.002 22.206 340.784 21.594 342.348 21.594C343.98 21.594 345.714 22.206 347.482 23.43L349.828 20.03C348.026 18.534 345.374 17.616 342.518 17.616C337.996 17.616 335.276 19.894 335.276 23.294C335.276 25.776 336.704 27.34 340.24 28.156L343.232 28.87C344.796 29.244 345.306 29.754 345.306 30.4C345.306 31.284 344.422 31.896 342.756 31.896C341.022 31.896 338.982 31.216 337.078 29.89L334.8 33.494C336.738 34.99 339.628 35.908 342.654 35.908Z" fill="#DE4554"/>
</svg>
