<svg width="12" height="8" viewBox="0 0 12 8" fill="none" xmlns="http://www.w3.org/2000/svg">
<path fill-rule="evenodd" clip-rule="evenodd" d="M0.227932 3.33953C1.62583 1.62982 3.84934 -0.0395829 5.99926 0.000715125C8.14917 -0.0395829 10.3727 1.62982 11.7722 3.33953C11.9189 3.52053 12.0001 3.7555 12.0001 3.99911C12.0001 4.24271 11.9189 4.47769 11.7722 4.65869C10.4036 6.33225 8.18597 8.04017 5.99926 7.99928C3.81254 8.04017 1.59543 6.33225 0.227932 4.65869C0.0811997 4.47769 0 4.24271 0 3.99911C0 3.7555 0.0811997 3.52053 0.227932 3.33953ZM6.00017 2.32898C6.22829 2.32892 6.45418 2.37381 6.66494 2.46109C6.8757 2.54838 7.0672 2.67634 7.22848 2.83766C7.38977 2.99899 7.51768 3.19052 7.6049 3.4013C7.69213 3.61209 7.73696 3.83799 7.73684 4.06611V4.06628C7.73675 4.40978 7.63481 4.74553 7.44391 5.03109C7.253 5.31665 6.98171 5.5392 6.66434 5.67058C6.34697 5.80197 5.99776 5.8363 5.66088 5.76923C5.32399 5.70216 5.01456 5.53671 4.7717 5.29379C4.52885 5.05087 4.36348 4.74139 4.2965 4.40449C4.22952 4.06759 4.26394 3.71839 4.39541 3.40105C4.52688 3.08371 4.7495 2.81248 5.03511 2.62165C5.32072 2.43083 5.65651 2.32898 6 2.32898H6.00017ZM7.14826 1.29406C6.78421 1.14329 6.39403 1.06574 6 1.06582L9 4.06662C9.00019 3.67259 8.92274 3.28239 8.77207 2.9183C8.62138 2.55416 8.40041 2.22329 8.12179 1.9446C7.84317 1.6659 7.51235 1.44484 7.14826 1.29406ZM4.33337 1.57135C4.82666 1.24178 5.40658 1.06585 5.99983 1.06582L9 4.06679C8.99981 4.66004 8.82373 5.23991 8.49402 5.73311C8.16428 6.22635 7.69569 6.61074 7.1475 6.83769C6.5993 7.06462 5.99613 7.12392 5.41424 7.00808C4.83235 6.89223 4.29787 6.60644 3.8784 6.18685C3.45892 5.76727 3.17328 5.23272 3.05759 4.65079C2.9419 4.06887 3.00135 3.46572 3.22844 2.91758C3.45553 2.36945 3.84004 1.90096 4.33337 1.57135Z" fill="#C5C5C5"/>
</svg>
